<?xml version="1.0" encoding="UTF-8" standalone="no"?>
<!DOCTYPE svg PUBLIC "-//W3C//DTD SVG 1.1//EN" "http://www.w3.org/Graphics/SVG/1.1/DTD/svg11.dtd">
<svg version="1.1" xmlns="http://www.w3.org/2000/svg" xmlns:xlink="http://www.w3.org/1999/xlink" preserveAspectRatio="xMidYMid meet" viewBox="0 0 640 640" width="640" height="640"><defs><path d="M396.31 284.69L464.87 395.49L327.74 395.49L190.61 395.49L259.17 284.69L327.74 173.9L396.31 284.69Z" id="aysDuekR0"></path><path d="M366.8 173.9C366.8 195.46 349.3 212.96 327.74 212.96C306.18 212.96 288.68 195.46 288.68 173.9C288.68 152.34 306.18 134.84 327.74 134.84C349.3 134.84 366.8 152.34 366.8 173.9Z" id="c1yx72ScJY"></path><path d="M229.68 390.03C229.68 411.59 212.17 429.09 190.61 429.09C169.05 429.09 151.55 411.59 151.55 390.03C151.55 368.47 169.05 350.96 190.61 350.96C212.17 350.96 229.68 368.47 229.68 390.03Z" id="a5VMWfURoE"></path><path d="M503.93 395.49C503.93 417.05 486.43 434.55 464.87 434.55C443.31 434.55 425.8 417.05 425.8 395.49C425.8 373.93 443.31 356.43 464.87 356.43C486.43 356.43 503.93 373.93 503.93 395.49Z" id="a23QQ16TBR"></path></defs><g><g><g><use xlink:href="#aysDuekR0" opacity="1" fill="#1a1a40" fill-opacity="1"></use><g><use xlink:href="#aysDuekR0" opacity="1" fill-opacity="0" stroke="#b2dede" stroke-width="0" stroke-opacity="1"></use></g></g><g><use xlink:href="#c1yx72ScJY" opacity="1" fill="#726da8" fill-opacity="1"></use><g><use xlink:href="#c1yx72ScJY" opacity="1" fill-opacity="0" stroke="#8824a8" stroke-width="0" stroke-opacity="1"></use></g></g><g><use xlink:href="#a5VMWfURoE" opacity="1" fill="#726da8" fill-opacity="1"></use><g><use xlink:href="#a5VMWfURoE" opacity="1" fill-opacity="0" stroke="#8824a8" stroke-width="0" stroke-opacity="1"></use></g></g><g><use xlink:href="#a23QQ16TBR" opacity="1" fill="#726da8" fill-opacity="1"></use><g><use xlink:href="#a23QQ16TBR" opacity="1" fill-opacity="0" stroke="#8824a8" stroke-width="0" stroke-opacity="1"></use></g></g></g></g></svg>